# xmcd
#
# Track frame offsets: 
#        150
#        10627
#        19320
#        26320
#        39427
#        53324
#        64920
#        75126
#        89132
#        99191
#
# Disc length: 1457 seconds
#
# Revision: 1
# Processed by: cddbd v1.5.2PL0 Copyright (c) Steve Scherf et al.
# Submitted via: ExactAudioCopy v1.0b3
#
DISCID=6105af0a
DTITLE=John Stein - Jazz Standards for Solo Guitar
DYEAR=2012
DGENRE=Instructional
TTITLE0=1 Dedicated to You
TTITLE1=2 Duke Elington's Sound of love
TTITLE2=3 I'm Glad There is You
TTITLE3=4 In a Sentimental Mood
TTITLE4=5 Litle Girl Blue
TTITLE5=6 My Foolish Heart
TTITLE6=7 My Romance
TTITLE7=8 Out of Nowhere
TTITLE8=9 Stella by Starlight
TTITLE9=10 You Don't Know What Love Is
EXTD=
EXTT0=
EXTT1=
EXTT2=
EXTT3=
EXTT4=
EXTT5=
EXTT6=
EXTT7=
EXTT8=
EXTT9=
PLAYORDER=
